<svg width="24" height="24" viewBox="0 0 24 24" xmlns="http://www.w3.org/2000/svg"><path d="M10.143 10.869c.592 0 1.074.507 1.074 1.13v7.87c0 .622-.482 1.13-1.074 1.13h-5.57c-.59 0-1.073-.508-1.073-1.13v-7.87c0-.623.482-1.13 1.074-1.13zm9.283 3.933c.592 0 1.074.509 1.074 1.132v3.935c0 .622-.482 1.13-1.074 1.13h-5.57c-.592 0-1.074-.508-1.074-1.13v-3.935c0-.623.482-1.132 1.075-1.132zM9.533 12.64h-4.35v6.59h4.35v-6.59zm9.283 3.935h-4.35v2.654h4.35v-2.654zM19.426 3c.592 0 1.074.507 1.074 1.13V12c0 .623-.482 1.13-1.074 1.13h-5.57c-.592 0-1.074-.507-1.074-1.13V4.13c0-.623.482-1.13 1.075-1.13zm-.61 1.77h-4.35v6.59h4.35V4.77zM10.143 3c.592 0 1.074.507 1.074 1.13v3.935c0 .624-.482 1.132-1.074 1.132h-5.57c-.59 0-1.073-.508-1.073-1.132V4.131C3.5 3.507 3.982 3 4.574 3zm-.61 1.77h-4.35v2.656h4.35V4.77z" fill="#6B7384" fill-rule="evenodd"></path></svg>